# xmcd
#
# Track frame offsets:
#	150
#	17244
#	32021
#	49305
#	68396
#	87083
#	106106
#	121323
#	135499
#	153268
#	170404
#
# Disc length: 2496 seconds
#
# Revision: 1
# Processed by: cddbd v1.5.2PL0 Copyright (c) Steve Scherf et al.
# Submitted via: EasyCDDAExtractor 15.3.0.1
#
DISCID=7f09be0b
DTITLE=Yuri - Invencible
DYEAR=2015
DGENRE=Latin
TTITLE0=Dejame Volar
TTITLE1=Sola
TTITLE2=Duele (Featuring Reik)
TTITLE3=Al Bailar (Featuring Yandel)
TTITLE4=Con Los Ojos Vendados (Featuring Jesse and Joy)
TTITLE5=Invencible
TTITLE6=A Escondidas
TTITLE7=Hoy Te Vi (Featuring El Cata)
TTITLE8=Ahora
TTITLE9=Nadie Es De Nadie
TTITLE10=Presa
EXTD=
EXTT0=
EXTT1=
EXTT2=
EXTT3=
EXTT4=
EXTT5=
EXTT6=
EXTT7=
EXTT8=
EXTT9=
EXTT10=
PLAYORDER=
